<?xml version="1.0" encoding="UTF-8"?><svg id="Layer_1" xmlns="http://www.w3.org/2000/svg" viewBox="0 0 411.77 95.25"><defs><style>.cls-1{fill:#0059a0;}.cls-2{fill:#1d1d1b;}</style></defs><path class="cls-1" d="m56.36,68.81c-6.84-7.4-9.89-17.55-8.26-27.5.46-2.59.68-5.21.68-7.84,0-12.09-4.77-22.25-13.08-27.87C28.3.53,19.7.53,10.61.53H0v15.28h10.6c8.37,0,13.71.18,17.33,2.65,4.08,2.76,6.42,8.21,6.42,14.94h0c.05,3.03-.48,6.05-1.56,8.88-.88,2.34-2.48,4.34-4.57,5.72-3,1.9-6.77,2.25-13,2.25H0v43.75h14.42v-28.4h.8c7.08,0,13.48-.35,19.72-4,2.15,6.91,5.83,13.24,10.77,18.52,8.5,9.25,20.62,14.32,33.17,13.89v-16c-8.5.45-16.76-2.93-22.52-9.2"/><path class="cls-1" d="m121.17,50.58c.73-13.27-3.97-26.26-13-36-7.62-8.2-18.11-13.14-29.29-13.77v16c7.17.6,13.84,3.86,18.72,9.15,6.15,6.66,9.25,15.58,8.54,24.62h15.03Z"/><path class="cls-2" d="m401.1,74.48h-17.58l8.85-24.32,8.73,24.32Zm1.12,3.08l6.13,16.85h3.42l-19.38-52.87-19.54,52.87h3.35l6.2-16.85h19.82Zm-58.55-10.62v-23.86h-3v51.33h3v-23.16l1.11-1.23,21.82,24.39h4.46l-24.19-26.55,22.73-24.78h-4.12l-21.81,23.86Zm-15.34-17.25c-2.44-4.69-6.48-7.31-11.29-7.31-6.83,0-11.92,5.39-11.92,12.55,0,5.85,2,8.54,9.2,12.47l1.33.69,1.32.77,1.32.69c2,1.16,3.63,2.08,4.67,2.7,2.79,1.59,4.52,4.55,4.54,7.77,0,6.62-5.09,12.09-11.37,12.09-5.16,0-8.29-2.62-11.15-9.24l-2.58,1.38c2.72,7.32,7.32,11,13.73,11,7.88,0,14.5-6.77,14.5-14.93.18-3.95-1.66-7.71-4.88-10-2.09-1.46-3.27-2.15-9.27-5.31-6.34-3.38-8.22-5.62-8.22-9.77,0-5.47,3.76-9.7,8.71-9.7,4,0,6.48,1.69,9.13,6.16l2.23-2.01Zm-42.31-6.61h-3v51.33h14.78v-3.1h-11.8l.02-48.23Zm-37.08,2.46c11.43,0,20.91,10.54,20.91,23.32s-9.48,23.25-20.91,23.25-21-10.55-21-23.63c0-12.4,9.62-22.94,21-22.94m0-3.16c-13,0-24.12,12.09-24.12,26,0,14.85,10.81,26.86,24.12,26.86s24-12,24-26.48-10.95-26.4-24-26.4m-49.56,24.56v-20.77h5.65c7,0,10.66,3.62,10.66,10.32s-4,10.47-10.25,10.47l-6.06-.02Zm0,3.08h6c8.37,0,13.46-5.08,13.46-13.4s-5.09-13.54-13.53-13.54h-8.92v51.35h3v-24.41Zm-37.08-24.48c11.43,0,20.91,10.54,20.91,23.32s-9.48,23.25-20.91,23.25-21-10.55-21-23.63c0-12.4,9.62-22.94,21-22.94m0-3.16c-13,0-24.12,12.09-24.12,26,0,14.85,10.8,26.86,24.12,26.86s24-12,24-26.48-11-26.4-24-26.4"/><path class="cls-2" d="m400.68,19.2h-5.68l2.88-9.34,2.8,9.34Zm1.85,5.79l1.7,5.08h7.29l-9.92-29.26h-7.46l-10.04,29.26h7.21l1.79-5.08h9.43Zm-36.75-12.1V.81h-6.82v29.24h6.82v-12.65l8.87,12.67h8.87l-11.42-15.38,10.41-13.88h-8.41l-8.32,12.08Zm-12.34-12.08h-6.84v29.24h6.82l.02-29.24Zm-38.56,29.24h6.81V12.19l12.59,17.88h6.82V.81h-6.81v17.89l-12.6-17.89h-6.81v29.24Zm-22.28-17.9V.81h-6.82v29.24h6.82v-12h9.9v12h6.82V.81h-6.82v11.32l-9.9.02Zm-11.13-10.44c-1.92-.97-4.04-1.48-6.19-1.49-7.73,0-13.92,6.83-13.92,15.39s6.15,15.25,14.08,15.25c1.77,0,2.84-.26,6-1.44v-9c-1.38,1.89-3.57,3.03-5.91,3.07-4.07,0-7.06-3.33-7.06-7.85s3-8.07,7.06-8.07c2.38,0,4.6,1.21,5.91,3.2l.03-9.06Zm-23.27,5.6V.81h-14.94v29.24h14.94v-6.44h-8.1v-5h7.69v-6.48h-7.69v-4.82h8.1Zm-23.62,0h5.68V.81h-18v6.48h5.56v22.8h6.78l-.02-22.78Zm-15.41-6.44h-6.82v29.24h6.82V.87Zm-18.54,0h-6.82v29.24h15v-6.48h-8.21l.03-22.76Zm-25.71,6.44c4.11,0,7.42,3.68,7.42,8.2s-3.31,8.3-7.42,8.3-7.41-3.69-7.41-8.25,3.31-8.2,7.41-8.2m0-7.36c-8.16,0-14.54,6.7-14.54,15.3,0,9.21,6.14,15.87,14.54,15.87s14.55-6.71,14.55-15.61-6.22-15.56-14.55-15.56m-30.17,14.3v-7.33h2.29c2.49,0,3.75,1.23,3.75,3.6,0,2.59-1.14,3.73-3.79,3.73h-2.25Zm0,6.09h4.27c5.83,0,8.91-3.42,8.91-9.91.12-2.62-.8-5.18-2.57-7.12-1.69-1.8-3.5-2.46-6.58-2.46h-10.84v29.24h6.81v-9.75Z"/></svg>